D:\school\WTK\thesis\model\3dpredictsim\Results\batch_windlass\Pog_s1_tmt_bCst_d00_k500_WL30_ig24_act_TTC_GRF.mot
nRows=10
nColumns=19

name D:\school\WTK\thesis\model\3dpredictsim\Results\batch_windlass\Pog_s1_tmt_bCst_d00_k500_WL30_ig24_act_TTC_GRF.mot
datacolumns 19
datarows 10
range 0.5976491075 0.7052259468
endheader
time 	ground_force_vx	ground_force_vy	ground_force_vz	ground_force_px	ground_force_py	ground_force_pz	1_ground_force_vx	1_ground_force_vy	1_ground_force_vz	1_ground_force_px	1_ground_force_py	1_ground_force_pz	ground_torque_x	ground_torque_y	ground_torque_z	1_ground_torque_x	1_ground_torque_y	1_ground_torque_z
        0.5976491075	       51.0156042658	      309.2158669459	        4.6665354677	        0.4011338660	        0.0000000000	        0.0279912830	      -60.8812151839	       48.0960753850	      -16.3482004225	        0.9179819184	        0.0000000000	       -0.0529358781	        0.0000000000	        0.0000000000	        0.0000000000	        0.0000000000	        0.0000000000	        0.0000000000	
        0.6096020896	       24.8568998332	      214.6092003689	       14.6371630627	        0.4127603221	        0.0000000000	        0.0219883652	     -131.9359933843	      138.9469462311	      -53.8332560429	        0.9259604482	        0.0000000000	       -0.0510755301	        0.0000000000	        0.0000000000	        0.0000000000	        0.0000000000	        0.0000000000	        0.0000000000	
        0.6215550718	       10.4186670255	      172.1457079789	       17.3905090871	        0.4155549449	        0.0000000000	        0.0202889149	      -70.0085909301	      328.9220967965	      -20.0331655810	        0.9319347592	        0.0000000000	       -0.0491926430	        0.0000000000	        0.0000000000	        0.0000000000	        0.0000000000	        0.0000000000	        0.0000000000	
        0.6335080539	        4.3924762047	      125.9936110804	       14.1784658366	        0.4157396538	        0.0000000000	        0.0201640641	      -56.5788330911	      561.9350180240	        6.1587454284	        0.9373698481	        0.0000000000	       -0.0495916290	        0.0000000000	        0.0000000000	        0.0000000000	        0.0000000000	        0.0000000000	        0.0000000000	
        0.6454610361	       -8.2519262941	       69.7224840416	       10.5580034484	        0.4150930750	        0.0000000000	        0.0201717423	      -95.4796594819	      801.8876114599	       19.8975579392	        0.9473144191	        0.0000000000	       -0.0518642328	        0.0000000000	        0.0000000000	        0.0000000000	        0.0000000000	        0.0000000000	        0.0000000000	
        0.6574140182	      -16.3329727503	       18.6180106527	        1.3596677339	        0.4113046209	        0.0000000000	        0.0191157043	     -125.7106381673	      907.4243005788	       25.3433476930	        0.9544195347	        0.0000000000	       -0.0534306064	        0.0000000000	        0.0000000000	        0.0000000000	        0.0000000000	        0.0000000000	        0.0000000000	
        0.6693670004	        0.4418979367	       -0.3815653448	        0.0415749645	        0.0000000000	        0.0000000000	        0.0000000000	     -128.9356122188	      920.5546953733	       27.8140671493	        0.9599792826	        0.0000000000	       -0.0544818568	        0.0000000000	        0.0000000000	        0.0000000000	        0.0000000000	        0.0000000000	        0.0000000000	
        0.6813199825	       -1.8309565732	        1.2759315920	       -0.2467174711	        0.0000000000	        0.0000000000	        0.0000000000	     -127.2454322818	      890.8016921844	       25.0396615628	        0.9648908053	        0.0000000000	       -0.0551392467	        0.0000000000	        0.0000000000	        0.0000000000	        0.0000000000	        0.0000000000	        0.0000000000	
        0.6932729647	       -0.8659755058	        0.5289332675	       -0.1110632726	        0.0000000000	        0.0000000000	        0.0000000000	     -117.0102307541	      848.7268801008	       21.3186954984	        0.9693618598	        0.0000000000	       -0.0551614575	        0.0000000000	        0.0000000000	        0.0000000000	        0.0000000000	        0.0000000000	        0.0000000000	
        0.7052259468	       -0.6229192600	        0.3641717152	       -0.0698989941	        0.0000000000	        0.0000000000	        0.0000000000	     -103.3319754892	      801.7803642003	       19.6219788300	        0.9747860795	        0.0000000000	       -0.0549001482	        0.0000000000	        0.0000000000	        0.0000000000	        0.0000000000	        0.0000000000	        0.0000000000	
